<svg width="54" height="57" viewBox="0 0 54 57" fill="none" xmlns="http://www.w3.org/2000/svg">
<rect width="53.0233" height="57" rx="4" fill="#9600DC"/>
<path d="M23.4008 42.2293C23.4008 41.4711 24.0155 40.8564 24.7738 40.8564H41.0456C41.8039 40.8564 42.4186 41.4711 42.4186 42.2293V42.2293C42.4186 42.9876 41.8039 43.6023 41.0456 43.6023H24.7738C24.0155 43.6023 23.4008 42.9876 23.4008 42.2293V42.2293ZM12.3675 40.4551C13.34 41.438 13.34 43.0206 12.3675 44.0035L11.5657 44.8139C11.0403 45.3449 11.0387 46.1995 11.5623 46.7325V46.7325C12.0965 47.2762 12.9722 47.2777 13.5083 46.7359L15.284 44.9412C16.7705 43.4388 16.7705 41.0199 15.284 39.5175L13.5014 37.7159C12.968 37.1767 12.0976 37.1752 11.5622 37.7124V37.7124C11.0323 38.2443 11.0307 39.1042 11.5588 39.6379L12.3675 40.4551ZM23.4008 28.5001C23.4008 27.7419 24.0155 27.1272 24.7738 27.1272H41.0456C41.8039 27.1272 42.4186 27.7419 42.4186 28.5001V28.5001C42.4186 29.2584 41.8039 29.873 41.0456 29.873H24.7738C24.0155 29.873 23.4008 29.2584 23.4008 28.5001V28.5001ZM12.3675 26.7259C13.34 27.7088 13.34 29.2914 12.3675 30.2743L11.5657 31.0846C11.0403 31.6157 11.0387 32.4703 11.5623 33.0032V33.0032C12.0965 33.5469 12.9722 33.5485 13.5083 33.0067L15.284 31.2119C16.7705 29.7096 16.7705 27.2906 15.284 25.7883L13.5014 23.9866C12.968 23.4475 12.0976 23.446 11.5622 23.9832V23.9832C11.0323 24.5151 11.0307 25.3749 11.5588 25.9087L12.3675 26.7259ZM23.4008 14.7709C23.4008 14.0126 24.0155 13.3979 24.7738 13.3979H41.0456C41.8039 13.3979 42.4186 14.0126 42.4186 14.7709V14.7709C42.4186 15.5291 41.8039 16.1438 41.0456 16.1438H24.7738C24.0155 16.1438 23.4008 15.5291 23.4008 14.7709V14.7709ZM12.3675 12.9967C13.34 13.9796 13.34 15.5622 12.3675 16.5451L11.5657 17.3554C11.0403 17.8864 11.0387 18.7411 11.5623 19.274V19.274C12.0965 19.8177 12.9722 19.8192 13.5083 19.2774L15.284 17.4827C16.7705 15.9804 16.7705 13.5614 15.284 12.0591L13.5014 10.2574C12.968 9.71826 12.0976 9.71672 11.5622 10.254V10.254C11.0323 10.7858 11.0307 11.6457 11.5588 12.1794L12.3675 12.9967Z" fill="white"/>
</svg>
