<svg width="59" height="59" viewBox="0 0 59 59" fill="none" xmlns="http://www.w3.org/2000/svg">
<path fill-rule="evenodd" clip-rule="evenodd" d="M54.308 23.1879C54.136 23.1796 53.9639 23.1766 53.7917 23.179H46.6087C40.7325 23.179 35.7 27.8428 35.7 33.9255C35.7 40.0082 40.7325 44.672 46.6117 44.672H53.7888C53.9687 44.672 54.1428 44.672 54.305 44.6602C55.5179 44.5828 56.6613 44.067 57.5221 43.2089C58.3829 42.3509 58.9023 41.2091 58.9836 39.9964C58.9954 39.8224 58.9954 39.6366 58.9954 39.4655V28.3856C58.9954 28.2145 58.9954 28.0287 58.9836 27.8546C58.9024 26.6424 58.3834 25.5011 57.5232 24.6431C56.663 23.7851 55.5204 23.269 54.308 23.1908M45.9804 36.7928C47.4937 36.7928 48.7238 35.5126 48.7238 33.9285C48.7238 32.3444 47.4937 31.0641 45.9804 31.0641C44.4671 31.0641 43.2399 32.3444 43.2399 33.9285C43.2399 35.5126 44.4641 36.7928 45.9804 36.7928Z" fill="#9600DC"/>
<path fill-rule="evenodd" clip-rule="evenodd" d="M53.7886 48.9703C53.8874 48.9668 53.9857 48.9866 54.0755 49.0281C54.1652 49.0696 54.244 49.1316 54.3054 49.2091C54.3669 49.2866 54.4092 49.3774 54.4291 49.4743C54.449 49.5712 54.4458 49.6713 54.4199 49.7668C53.8476 51.8081 52.942 53.5485 51.4877 55.0117C49.3608 57.1563 46.6616 58.1091 43.3282 58.5604C40.0892 59 35.9535 59 30.7262 59H24.7173C19.493 59 15.3543 59 12.1153 58.5604C8.78187 58.1091 6.08271 57.1563 3.95582 55.0117C1.82894 52.873 0.884972 50.1503 0.436586 46.7933C0 43.5248 0 39.3536 0 34.088V33.7635C0 28.4979 0 24.3238 0.436586 21.0612C0.884972 17.7013 1.82894 14.9874 3.95287 12.8369C6.07976 10.6953 8.77892 9.73948 12.1123 9.2911C15.3543 8.85156 19.493 8.85156 24.7173 8.85156H30.7262C35.9505 8.85156 40.0892 8.85156 43.3282 9.2911C46.6616 9.74243 49.3608 10.6953 51.4877 12.8369C52.942 14.303 53.8476 16.0434 54.4199 18.0877C54.4453 18.183 54.448 18.2828 54.4279 18.3793C54.4077 18.4758 54.3653 18.5662 54.3039 18.6433C54.2426 18.7205 54.164 18.7822 54.0745 18.8235C53.985 18.8648 53.8871 18.8846 53.7886 18.8812H46.6115C38.5464 18.8812 31.4401 25.3032 31.4401 33.9258C31.4401 42.5483 38.5494 48.9703 46.6144 48.9703H53.7886ZM10.661 20.3149C10.3801 20.3161 10.1022 20.3725 9.8432 20.4811C9.58416 20.5896 9.34905 20.7481 9.15127 20.9476C8.9535 21.147 8.79694 21.3834 8.69054 21.6433C8.58413 21.9032 8.52997 22.1816 8.53113 22.4624C8.53113 23.6512 9.48395 24.6129 10.661 24.6129H22.0358C23.2158 24.6129 24.1686 23.6512 24.1686 22.4624C24.1702 21.8949 23.9464 21.35 23.5465 20.9474C23.1466 20.5447 22.6033 20.3172 22.0358 20.3149H10.661Z" fill="#9600DC"/>
<path d="M17.0419 5.97235L22.8178 1.71563C24.325 0.601345 26.15 0 28.0244 0C29.8988 0 31.7237 0.601345 33.231 1.71563L39.0393 5.99594C36.6086 5.90155 33.8947 5.90155 30.9241 5.90155H24.5228C21.803 5.90155 19.3044 5.90155 17.0419 5.97235Z" fill="#9600DC"/>
</svg>
