<svg width="608" height="605" viewBox="0 0 608 605" fill="none" xmlns="http://www.w3.org/2000/svg">
<g filter="url(#filter0_d_240_390)">
<rect x="149" y="52" width="407" height="472" rx="10" fill="white"/>
</g>
<circle cx="367.5" cy="51.5" r="31.5" fill="#9600DC"/>
<path fill-rule="evenodd" clip-rule="evenodd" d="M368.032 37C364.077 37 360.473 38.2434 358.34 39.2594C358.148 39.351 357.968 39.441 357.801 39.5277C357.47 39.6994 357.188 39.8594 356.963 40.0003L359.389 43.3989L360.531 43.8314C364.994 45.9741 370.979 45.9741 375.443 43.8314L376.739 43.1913L379.033 40.0003C378.558 39.7053 378.064 39.4389 377.554 39.2027C375.432 38.1976 371.913 37 368.032 37ZM362.392 40.847C361.532 40.694 360.684 40.4914 359.851 40.2403C361.849 39.396 364.825 38.5001 368.033 38.5001C370.255 38.5001 372.356 38.9302 374.094 39.4752C372.057 39.7477 369.885 40.2103 367.814 40.7795C366.185 41.2279 364.281 41.1795 362.392 40.847ZM376.369 45.0673L376.153 45.1707C371.244 47.5275 364.732 47.5275 359.822 45.1707L359.618 45.0723C352.241 52.7738 346.61 67 368.032 67C389.455 67 383.687 52.5096 376.369 45.0673ZM367.122 52.0012C366.658 52.0012 366.212 52.1769 365.884 52.4894C365.555 52.802 365.371 53.226 365.371 53.6681C365.371 54.1101 365.555 54.5341 365.884 54.8467C366.212 55.1593 366.658 55.3349 367.122 55.3349V52.0012ZM368.874 50.3344V49.501H367.122V50.3344C366.193 50.3344 365.302 50.6857 364.645 51.3108C363.988 51.936 363.619 52.7839 363.619 53.6681C363.619 54.5522 363.988 55.4001 364.645 56.0253C365.302 56.6504 366.193 57.0017 367.122 57.0017V60.3353C366.361 60.3353 365.712 59.8727 365.47 59.2244C365.434 59.1183 365.376 59.0201 365.3 58.9357C365.223 58.8513 365.13 58.7823 365.025 58.7328C364.92 58.6833 364.806 58.6544 364.689 58.6477C364.572 58.641 364.455 58.6567 364.344 58.6938C364.234 58.7309 364.133 58.7887 364.046 58.8638C363.96 58.9389 363.89 59.0297 363.841 59.131C363.792 59.2322 363.765 59.3417 363.761 59.4531C363.757 59.5645 363.777 59.6754 363.819 59.7794C364.061 60.4294 364.508 60.9922 365.1 61.3903C365.691 61.7883 366.398 62.0021 367.122 62.0021V62.8355H368.874V62.0021C369.803 62.0021 370.694 61.6509 371.351 61.0257C372.008 60.4005 372.377 59.5526 372.377 58.6685C372.377 57.7843 372.008 56.9364 371.351 56.3113C370.694 55.6861 369.803 55.3349 368.874 55.3349V52.0012C369.636 52.0012 370.285 52.4638 370.527 53.1122C370.562 53.2183 370.62 53.3164 370.697 53.4008C370.773 53.4853 370.867 53.5543 370.971 53.6037C371.076 53.6532 371.191 53.6821 371.308 53.6888C371.424 53.6955 371.542 53.6799 371.652 53.6427C371.762 53.6056 371.864 53.5478 371.95 53.4727C372.037 53.3976 372.107 53.3068 372.156 53.2056C372.205 53.1044 372.232 52.9948 372.236 52.8834C372.239 52.7721 372.22 52.6611 372.177 52.5571C371.936 51.9071 371.488 51.3443 370.897 50.9463C370.305 50.5482 369.599 50.3345 368.874 50.3344ZM368.874 57.0017V60.3353C369.339 60.3353 369.784 60.1597 370.113 59.8471C370.441 59.5345 370.626 59.1105 370.626 58.6685C370.626 58.2264 370.441 57.8024 370.113 57.4899C369.784 57.1773 369.339 57.0017 368.874 57.0017Z" fill="white"/>
<g filter="url(#filter1_d_240_390)">
<rect x="52" y="131" width="425" height="127" rx="10" fill="white"/>
</g>
<path d="M149 160.04V162.3H143.18V165.88H147.64V168.1H143.18V174H140.38V160.04H149ZM155.905 174.18C154.839 174.18 153.879 173.947 153.025 173.48C152.172 173 151.499 172.327 151.005 171.46C150.525 170.593 150.285 169.593 150.285 168.46C150.285 167.327 150.532 166.327 151.025 165.46C151.532 164.593 152.219 163.927 153.085 163.46C153.952 162.98 154.919 162.74 155.985 162.74C157.052 162.74 158.019 162.98 158.885 163.46C159.752 163.927 160.432 164.593 160.925 165.46C161.432 166.327 161.685 167.327 161.685 168.46C161.685 169.593 161.425 170.593 160.905 171.46C160.399 172.327 159.705 173 158.825 173.48C157.959 173.947 156.985 174.18 155.905 174.18ZM155.905 171.74C156.412 171.74 156.885 171.62 157.325 171.38C157.779 171.127 158.139 170.753 158.405 170.26C158.672 169.767 158.805 169.167 158.805 168.46C158.805 167.407 158.525 166.6 157.965 166.04C157.419 165.467 156.745 165.18 155.945 165.18C155.145 165.18 154.472 165.467 153.925 166.04C153.392 166.6 153.125 167.407 153.125 168.46C153.125 169.513 153.385 170.327 153.905 170.9C154.439 171.46 155.105 171.74 155.905 171.74ZM168.659 174.18C167.593 174.18 166.633 173.947 165.779 173.48C164.926 173 164.253 172.327 163.759 171.46C163.279 170.593 163.039 169.593 163.039 168.46C163.039 167.327 163.286 166.327 163.779 165.46C164.286 164.593 164.973 163.927 165.839 163.46C166.706 162.98 167.673 162.74 168.739 162.74C169.806 162.74 170.773 162.98 171.639 163.46C172.506 163.927 173.186 164.593 173.679 165.46C174.186 166.327 174.439 167.327 174.439 168.46C174.439 169.593 174.179 170.593 173.659 171.46C173.153 172.327 172.459 173 171.579 173.48C170.713 173.947 169.739 174.18 168.659 174.18ZM168.659 171.74C169.166 171.74 169.639 171.62 170.079 171.38C170.533 171.127 170.893 170.753 171.159 170.26C171.426 169.767 171.559 169.167 171.559 168.46C171.559 167.407 171.279 166.6 170.719 166.04C170.173 165.467 169.499 165.18 168.699 165.18C167.899 165.18 167.226 165.467 166.679 166.04C166.146 166.6 165.879 167.407 165.879 168.46C165.879 169.513 166.139 170.327 166.659 170.9C167.193 171.46 167.859 171.74 168.659 171.74ZM175.773 168.42C175.773 167.3 175.993 166.307 176.433 165.44C176.887 164.573 177.5 163.907 178.273 163.44C179.047 162.973 179.907 162.74 180.853 162.74C181.573 162.74 182.26 162.9 182.913 163.22C183.567 163.527 184.087 163.94 184.473 164.46V159.2H187.313V174H184.473V172.36C184.127 172.907 183.64 173.347 183.013 173.68C182.387 174.013 181.66 174.18 180.833 174.18C179.9 174.18 179.047 173.94 178.273 173.46C177.5 172.98 176.887 172.307 176.433 171.44C175.993 170.56 175.773 169.553 175.773 168.42ZM184.493 168.46C184.493 167.78 184.36 167.2 184.093 166.72C183.827 166.227 183.467 165.853 183.013 165.6C182.56 165.333 182.073 165.2 181.553 165.2C181.033 165.2 180.553 165.327 180.113 165.58C179.673 165.833 179.313 166.207 179.033 166.7C178.767 167.18 178.633 167.753 178.633 168.42C178.633 169.087 178.767 169.673 179.033 170.18C179.313 170.673 179.673 171.053 180.113 171.32C180.567 171.587 181.047 171.72 181.553 171.72C182.073 171.72 182.56 171.593 183.013 171.34C183.467 171.073 183.827 170.7 184.093 170.22C184.36 169.727 184.493 169.14 184.493 168.46Z" fill="black"/>
<rect x="79" y="202" width="372" height="40" rx="20" fill="#F8ECFE"/>
<rect x="79" y="202" width="140" height="40" rx="20" fill="#1CBCBC"/>
<path d="M101.94 225.84C103.22 224.773 104.24 223.887 105 223.18C105.76 222.46 106.393 221.713 106.9 220.94C107.407 220.167 107.66 219.407 107.66 218.66C107.66 217.98 107.5 217.447 107.18 217.06C106.86 216.673 106.367 216.48 105.7 216.48C105.033 216.48 104.52 216.707 104.16 217.16C103.8 217.6 103.613 218.207 103.6 218.98H100.88C100.933 217.38 101.407 216.167 102.3 215.34C103.207 214.513 104.353 214.1 105.74 214.1C107.26 214.1 108.427 214.507 109.24 215.32C110.053 216.12 110.46 217.18 110.46 218.5C110.46 219.54 110.18 220.533 109.62 221.48C109.06 222.427 108.42 223.253 107.7 223.96C106.98 224.653 106.04 225.493 104.88 226.48H110.78V228.8H100.9V226.72L101.94 225.84ZM122.344 216.84H115.864V220.26C116.144 219.913 116.544 219.633 117.064 219.42C117.584 219.193 118.138 219.08 118.724 219.08C119.791 219.08 120.664 219.313 121.344 219.78C122.024 220.247 122.518 220.847 122.824 221.58C123.131 222.3 123.284 223.073 123.284 223.9C123.284 225.433 122.844 226.667 121.964 227.6C121.098 228.533 119.858 229 118.244 229C116.724 229 115.511 228.62 114.604 227.86C113.698 227.1 113.184 226.107 113.064 224.88H115.784C115.904 225.413 116.171 225.84 116.584 226.16C117.011 226.48 117.551 226.64 118.204 226.64C118.991 226.64 119.584 226.393 119.984 225.9C120.384 225.407 120.584 224.753 120.584 223.94C120.584 223.113 120.378 222.487 119.964 222.06C119.564 221.62 118.971 221.4 118.184 221.4C117.624 221.4 117.158 221.54 116.784 221.82C116.411 222.1 116.144 222.473 115.984 222.94H113.304V214.38H122.344V216.84ZM125.095 218C125.095 216.987 125.389 216.193 125.975 215.62C126.575 215.047 127.342 214.76 128.275 214.76C129.209 214.76 129.969 215.047 130.555 215.62C131.155 216.193 131.455 216.987 131.455 218C131.455 219.027 131.155 219.827 130.555 220.4C129.969 220.973 129.209 221.26 128.275 221.26C127.342 221.26 126.575 220.973 125.975 220.4C125.389 219.827 125.095 219.027 125.095 218ZM137.935 215L130.075 229H127.355L135.195 215H137.935ZM128.255 216.44C127.522 216.44 127.155 216.96 127.155 218C127.155 219.053 127.522 219.58 128.255 219.58C128.615 219.58 128.895 219.453 129.095 219.2C129.295 218.933 129.395 218.533 129.395 218C129.395 216.96 129.015 216.44 128.255 216.44ZM133.875 225.98C133.875 224.953 134.169 224.16 134.755 223.6C135.355 223.027 136.122 222.74 137.055 222.74C137.989 222.74 138.742 223.027 139.315 223.6C139.902 224.16 140.195 224.953 140.195 225.98C140.195 227.007 139.902 227.807 139.315 228.38C138.742 228.953 137.989 229.24 137.055 229.24C136.109 229.24 135.342 228.953 134.755 228.38C134.169 227.807 133.875 227.007 133.875 225.98ZM137.035 224.42C136.275 224.42 135.895 224.94 135.895 225.98C135.895 227.033 136.275 227.56 137.035 227.56C137.782 227.56 138.155 227.033 138.155 225.98C138.155 224.94 137.782 224.42 137.035 224.42Z" fill="white"/>
<path d="M411.34 169.98C411.34 170.673 411.16 171.327 410.8 171.94C410.453 172.54 409.933 173.04 409.24 173.44C408.56 173.827 407.753 174.053 406.82 174.12V175.74H405.54V174.1C404.207 173.98 403.133 173.58 402.32 172.9C401.507 172.207 401.087 171.273 401.06 170.1H404.06C404.14 171.06 404.633 171.64 405.54 171.84V168.02C404.58 167.78 403.807 167.54 403.22 167.3C402.633 167.06 402.127 166.673 401.7 166.14C401.273 165.607 401.06 164.88 401.06 163.96C401.06 162.8 401.473 161.853 402.3 161.12C403.14 160.387 404.22 159.967 405.54 159.86V158.24H406.82V159.86C408.1 159.967 409.12 160.353 409.88 161.02C410.653 161.687 411.087 162.607 411.18 163.78H408.16C408.12 163.393 407.98 163.06 407.74 162.78C407.513 162.487 407.207 162.28 406.82 162.16V165.94C407.82 166.193 408.607 166.44 409.18 166.68C409.767 166.907 410.273 167.287 410.7 167.82C411.127 168.34 411.34 169.06 411.34 169.98ZM403.98 163.82C403.98 164.26 404.113 164.62 404.38 164.9C404.647 165.167 405.033 165.387 405.54 165.56V162.1C405.06 162.167 404.68 162.347 404.4 162.64C404.12 162.933 403.98 163.327 403.98 163.82ZM406.82 171.88C407.327 171.787 407.72 171.58 408 171.26C408.293 170.94 408.44 170.553 408.44 170.1C408.44 169.66 408.3 169.307 408.02 169.04C407.74 168.773 407.34 168.553 406.82 168.38V171.88ZM415.026 170.84C416.306 169.773 417.326 168.887 418.086 168.18C418.846 167.46 419.479 166.713 419.986 165.94C420.493 165.167 420.746 164.407 420.746 163.66C420.746 162.98 420.586 162.447 420.266 162.06C419.946 161.673 419.453 161.48 418.786 161.48C418.119 161.48 417.606 161.707 417.246 162.16C416.886 162.6 416.699 163.207 416.686 163.98H413.966C414.019 162.38 414.493 161.167 415.386 160.34C416.293 159.513 417.439 159.1 418.826 159.1C420.346 159.1 421.513 159.507 422.326 160.32C423.139 161.12 423.546 162.18 423.546 163.5C423.546 164.54 423.266 165.533 422.706 166.48C422.146 167.427 421.506 168.253 420.786 168.96C420.066 169.653 419.126 170.493 417.966 171.48H423.866V173.8H413.986V171.72L415.026 170.84ZM428.07 166.28C426.737 165.587 426.07 164.513 426.07 163.06C426.07 162.34 426.25 161.687 426.61 161.1C426.984 160.5 427.537 160.027 428.27 159.68C429.017 159.32 429.924 159.14 430.99 159.14C432.057 159.14 432.957 159.32 433.69 159.68C434.437 160.027 434.99 160.5 435.35 161.1C435.724 161.687 435.91 162.34 435.91 163.06C435.91 163.793 435.73 164.44 435.37 165C435.01 165.547 434.53 165.973 433.93 166.28C434.664 166.6 435.237 167.067 435.65 167.68C436.064 168.293 436.27 169.02 436.27 169.86C436.27 170.767 436.037 171.56 435.57 172.24C435.117 172.907 434.49 173.42 433.69 173.78C432.89 174.14 431.99 174.32 430.99 174.32C429.99 174.32 429.09 174.14 428.29 173.78C427.504 173.42 426.877 172.907 426.41 172.24C425.957 171.56 425.73 170.767 425.73 169.86C425.73 169.02 425.937 168.293 426.35 167.68C426.764 167.053 427.337 166.587 428.07 166.28ZM433.19 163.46C433.19 162.807 432.99 162.3 432.59 161.94C432.204 161.58 431.67 161.4 430.99 161.4C430.324 161.4 429.79 161.58 429.39 161.94C429.004 162.3 428.81 162.813 428.81 163.48C428.81 164.08 429.01 164.56 429.41 164.92C429.824 165.28 430.35 165.46 430.99 165.46C431.63 165.46 432.157 165.28 432.57 164.92C432.984 164.547 433.19 164.06 433.19 163.46ZM430.99 167.5C430.23 167.5 429.61 167.693 429.13 168.08C428.664 168.467 428.43 169.02 428.43 169.74C428.43 170.407 428.657 170.953 429.11 171.38C429.577 171.793 430.204 172 430.99 172C431.777 172 432.397 171.787 432.85 171.36C433.304 170.933 433.53 170.393 433.53 169.74C433.53 169.033 433.297 168.487 432.83 168.1C432.364 167.7 431.75 167.5 430.99 167.5ZM438.482 166.52C438.482 164.213 438.895 162.407 439.722 161.1C440.562 159.793 441.949 159.14 443.882 159.14C445.815 159.14 447.195 159.793 448.022 161.1C448.862 162.407 449.282 164.213 449.282 166.52C449.282 168.84 448.862 170.66 448.022 171.98C447.195 173.3 445.815 173.96 443.882 173.96C441.949 173.96 440.562 173.3 439.722 171.98C438.895 170.66 438.482 168.84 438.482 166.52ZM446.522 166.52C446.522 165.533 446.455 164.707 446.322 164.04C446.202 163.36 445.949 162.807 445.562 162.38C445.189 161.953 444.629 161.74 443.882 161.74C443.135 161.74 442.569 161.953 442.182 162.38C441.809 162.807 441.555 163.36 441.422 164.04C441.302 164.707 441.242 165.533 441.242 166.52C441.242 167.533 441.302 168.387 441.422 169.08C441.542 169.76 441.795 170.313 442.182 170.74C442.569 171.153 443.135 171.36 443.882 171.36C444.629 171.36 445.195 171.153 445.582 170.74C445.969 170.313 446.222 169.76 446.342 169.08C446.462 168.387 446.522 167.533 446.522 166.52Z" fill="black"/>
<circle cx="100" cy="167" r="21" fill="#1CBCBC"/>
<path d="M106.06 178H107.72C108.56 178 109.25 177.35 109.35 176.53L111 160.05H106V156H104.03V160.05H99.06L99.36 162.39C101.07 162.86 102.67 163.71 103.63 164.65C105.07 166.07 106.06 167.54 106.06 169.94V178ZM89 177V176H104.03V177C104.03 177.54 103.58 178 103 178H90C89.45 178 89 177.54 89 177ZM104.03 170C104.03 162 89 162 89 170H104.03ZM89 172H104V174H89V172Z" fill="white"/>
<g filter="url(#filter2_d_240_390)">
<rect x="52" y="273" width="425" height="127" rx="10" fill="white"/>
</g>
<path d="M149.88 302.04V304.3H146.16V316H143.36V304.3H139.64V302.04H149.88ZM154.723 306.64C155.083 306.053 155.55 305.593 156.123 305.26C156.71 304.927 157.376 304.76 158.123 304.76V307.7H157.383C156.503 307.7 155.836 307.907 155.383 308.32C154.943 308.733 154.723 309.453 154.723 310.48V316H151.923V304.92H154.723V306.64ZM159.289 310.42C159.289 309.3 159.509 308.307 159.949 307.44C160.402 306.573 161.009 305.907 161.769 305.44C162.542 304.973 163.402 304.74 164.349 304.74C165.176 304.74 165.896 304.907 166.509 305.24C167.136 305.573 167.636 305.993 168.009 306.5V304.92H170.829V316H168.009V314.38C167.649 314.9 167.149 315.333 166.509 315.68C165.882 316.013 165.156 316.18 164.329 316.18C163.396 316.18 162.542 315.94 161.769 315.46C161.009 314.98 160.402 314.307 159.949 313.44C159.509 312.56 159.289 311.553 159.289 310.42ZM168.009 310.46C168.009 309.78 167.876 309.2 167.609 308.72C167.342 308.227 166.982 307.853 166.529 307.6C166.076 307.333 165.589 307.2 165.069 307.2C164.549 307.2 164.069 307.327 163.629 307.58C163.189 307.833 162.829 308.207 162.549 308.7C162.282 309.18 162.149 309.753 162.149 310.42C162.149 311.087 162.282 311.673 162.549 312.18C162.829 312.673 163.189 313.053 163.629 313.32C164.082 313.587 164.562 313.72 165.069 313.72C165.589 313.72 166.076 313.593 166.529 313.34C166.982 313.073 167.342 312.7 167.609 312.22C167.876 311.727 168.009 311.14 168.009 310.46ZM179.704 304.76C181.024 304.76 182.09 305.18 182.904 306.02C183.717 306.847 184.124 308.007 184.124 309.5V316H181.324V309.88C181.324 309 181.104 308.327 180.664 307.86C180.224 307.38 179.624 307.14 178.864 307.14C178.09 307.14 177.477 307.38 177.024 307.86C176.584 308.327 176.364 309 176.364 309.88V316H173.564V304.92H176.364V306.3C176.737 305.82 177.21 305.447 177.784 305.18C178.37 304.9 179.01 304.76 179.704 304.76ZM191.026 316.18C190.12 316.18 189.306 316.02 188.586 315.7C187.866 315.367 187.293 314.92 186.866 314.36C186.453 313.8 186.226 313.18 186.186 312.5H189.006C189.06 312.927 189.266 313.28 189.626 313.56C190 313.84 190.46 313.98 191.006 313.98C191.54 313.98 191.953 313.873 192.246 313.66C192.553 313.447 192.706 313.173 192.706 312.84C192.706 312.48 192.52 312.213 192.146 312.04C191.786 311.853 191.206 311.653 190.406 311.44C189.58 311.24 188.9 311.033 188.366 310.82C187.846 310.607 187.393 310.28 187.006 309.84C186.633 309.4 186.446 308.807 186.446 308.06C186.446 307.447 186.62 306.887 186.966 306.38C187.326 305.873 187.833 305.473 188.486 305.18C189.153 304.887 189.933 304.74 190.826 304.74C192.146 304.74 193.2 305.073 193.986 305.74C194.773 306.393 195.206 307.28 195.286 308.4H192.606C192.566 307.96 192.38 307.613 192.046 307.36C191.726 307.093 191.293 306.96 190.746 306.96C190.24 306.96 189.846 307.053 189.566 307.24C189.3 307.427 189.166 307.687 189.166 308.02C189.166 308.393 189.353 308.68 189.726 308.88C190.1 309.067 190.68 309.26 191.466 309.46C192.266 309.66 192.926 309.867 193.446 310.08C193.966 310.293 194.413 310.627 194.786 311.08C195.173 311.52 195.373 312.107 195.386 312.84C195.386 313.48 195.206 314.053 194.846 314.56C194.5 315.067 193.993 315.467 193.326 315.76C192.673 316.04 191.906 316.18 191.026 316.18ZM200.485 306.52C200.845 306.013 201.338 305.593 201.965 305.26C202.605 304.913 203.331 304.74 204.145 304.74C205.091 304.74 205.945 304.973 206.705 305.44C207.478 305.907 208.085 306.573 208.525 307.44C208.978 308.293 209.205 309.287 209.205 310.42C209.205 311.553 208.978 312.56 208.525 313.44C208.085 314.307 207.478 314.98 206.705 315.46C205.945 315.94 205.091 316.18 204.145 316.18C203.331 316.18 202.611 316.013 201.985 315.68C201.371 315.347 200.871 314.927 200.485 314.42V321.28H197.685V304.92H200.485V306.52ZM206.345 310.42C206.345 309.753 206.205 309.18 205.925 308.7C205.658 308.207 205.298 307.833 204.845 307.58C204.405 307.327 203.925 307.2 203.405 307.2C202.898 307.2 202.418 307.333 201.965 307.6C201.525 307.853 201.165 308.227 200.885 308.72C200.618 309.213 200.485 309.793 200.485 310.46C200.485 311.127 200.618 311.707 200.885 312.2C201.165 312.693 201.525 313.073 201.965 313.34C202.418 313.593 202.898 313.72 203.405 313.72C203.925 313.72 204.405 313.587 204.845 313.32C205.298 313.053 205.658 312.673 205.925 312.18C206.205 311.687 206.345 311.1 206.345 310.42ZM216.159 316.18C215.093 316.18 214.133 315.947 213.279 315.48C212.426 315 211.753 314.327 211.259 313.46C210.779 312.593 210.539 311.593 210.539 310.46C210.539 309.327 210.786 308.327 211.279 307.46C211.786 306.593 212.473 305.927 213.339 305.46C214.206 304.98 215.173 304.74 216.239 304.74C217.306 304.74 218.273 304.98 219.139 305.46C220.006 305.927 220.686 306.593 221.179 307.46C221.686 308.327 221.939 309.327 221.939 310.46C221.939 311.593 221.679 312.593 221.159 313.46C220.653 314.327 219.959 315 219.079 315.48C218.213 315.947 217.239 316.18 216.159 316.18ZM216.159 313.74C216.666 313.74 217.139 313.62 217.579 313.38C218.033 313.127 218.393 312.753 218.659 312.26C218.926 311.767 219.059 311.167 219.059 310.46C219.059 309.407 218.779 308.6 218.219 308.04C217.673 307.467 216.999 307.18 216.199 307.18C215.399 307.18 214.726 307.467 214.179 308.04C213.646 308.6 213.379 309.407 213.379 310.46C213.379 311.513 213.639 312.327 214.159 312.9C214.693 313.46 215.359 313.74 216.159 313.74ZM226.793 306.64C227.153 306.053 227.62 305.593 228.193 305.26C228.78 304.927 229.447 304.76 230.193 304.76V307.7H229.453C228.573 307.7 227.907 307.907 227.453 308.32C227.013 308.733 226.793 309.453 226.793 310.48V316H223.993V304.92H226.793V306.64ZM235.339 307.22V312.58C235.339 312.953 235.426 313.227 235.599 313.4C235.786 313.56 236.093 313.64 236.519 313.64H237.819V316H236.059C233.699 316 232.519 314.853 232.519 312.56V307.22H231.199V304.92H232.519V302.18H235.339V304.92H237.819V307.22H235.339Z" fill="black"/>
<rect x="79" y="344" width="372" height="40" rx="20" fill="#F8ECFE"/>
<rect x="79" y="344" width="140" height="40" rx="20" fill="#FFBF53"/>
<path d="M101.94 367.84C103.22 366.773 104.24 365.887 105 365.18C105.76 364.46 106.393 363.713 106.9 362.94C107.407 362.167 107.66 361.407 107.66 360.66C107.66 359.98 107.5 359.447 107.18 359.06C106.86 358.673 106.367 358.48 105.7 358.48C105.033 358.48 104.52 358.707 104.16 359.16C103.8 359.6 103.613 360.207 103.6 360.98H100.88C100.933 359.38 101.407 358.167 102.3 357.34C103.207 356.513 104.353 356.1 105.74 356.1C107.26 356.1 108.427 356.507 109.24 357.32C110.053 358.12 110.46 359.18 110.46 360.5C110.46 361.54 110.18 362.533 109.62 363.48C109.06 364.427 108.42 365.253 107.7 365.96C106.98 366.653 106.04 367.493 104.88 368.48H110.78V370.8H100.9V368.72L101.94 367.84ZM122.344 358.84H115.864V362.26C116.144 361.913 116.544 361.633 117.064 361.42C117.584 361.193 118.138 361.08 118.724 361.08C119.791 361.08 120.664 361.313 121.344 361.78C122.024 362.247 122.518 362.847 122.824 363.58C123.131 364.3 123.284 365.073 123.284 365.9C123.284 367.433 122.844 368.667 121.964 369.6C121.098 370.533 119.858 371 118.244 371C116.724 371 115.511 370.62 114.604 369.86C113.698 369.1 113.184 368.107 113.064 366.88H115.784C115.904 367.413 116.171 367.84 116.584 368.16C117.011 368.48 117.551 368.64 118.204 368.64C118.991 368.64 119.584 368.393 119.984 367.9C120.384 367.407 120.584 366.753 120.584 365.94C120.584 365.113 120.378 364.487 119.964 364.06C119.564 363.62 118.971 363.4 118.184 363.4C117.624 363.4 117.158 363.54 116.784 363.82C116.411 364.1 116.144 364.473 115.984 364.94H113.304V356.38H122.344V358.84ZM125.095 360C125.095 358.987 125.389 358.193 125.975 357.62C126.575 357.047 127.342 356.76 128.275 356.76C129.209 356.76 129.969 357.047 130.555 357.62C131.155 358.193 131.455 358.987 131.455 360C131.455 361.027 131.155 361.827 130.555 362.4C129.969 362.973 129.209 363.26 128.275 363.26C127.342 363.26 126.575 362.973 125.975 362.4C125.389 361.827 125.095 361.027 125.095 360ZM137.935 357L130.075 371H127.355L135.195 357H137.935ZM128.255 358.44C127.522 358.44 127.155 358.96 127.155 360C127.155 361.053 127.522 361.58 128.255 361.58C128.615 361.58 128.895 361.453 129.095 361.2C129.295 360.933 129.395 360.533 129.395 360C129.395 358.96 129.015 358.44 128.255 358.44ZM133.875 367.98C133.875 366.953 134.169 366.16 134.755 365.6C135.355 365.027 136.122 364.74 137.055 364.74C137.989 364.74 138.742 365.027 139.315 365.6C139.902 366.16 140.195 366.953 140.195 367.98C140.195 369.007 139.902 369.807 139.315 370.38C138.742 370.953 137.989 371.24 137.055 371.24C136.109 371.24 135.342 370.953 134.755 370.38C134.169 369.807 133.875 369.007 133.875 367.98ZM137.035 366.42C136.275 366.42 135.895 366.94 135.895 367.98C135.895 369.033 136.275 369.56 137.035 369.56C137.782 369.56 138.155 369.033 138.155 367.98C138.155 366.94 137.782 366.42 137.035 366.42Z" fill="white"/>
<path d="M411.34 311.98C411.34 312.673 411.16 313.327 410.8 313.94C410.453 314.54 409.933 315.04 409.24 315.44C408.56 315.827 407.753 316.053 406.82 316.12V317.74H405.54V316.1C404.207 315.98 403.133 315.58 402.32 314.9C401.507 314.207 401.087 313.273 401.06 312.1H404.06C404.14 313.06 404.633 313.64 405.54 313.84V310.02C404.58 309.78 403.807 309.54 403.22 309.3C402.633 309.06 402.127 308.673 401.7 308.14C401.273 307.607 401.06 306.88 401.06 305.96C401.06 304.8 401.473 303.853 402.3 303.12C403.14 302.387 404.22 301.967 405.54 301.86V300.24H406.82V301.86C408.1 301.967 409.12 302.353 409.88 303.02C410.653 303.687 411.087 304.607 411.18 305.78H408.16C408.12 305.393 407.98 305.06 407.74 304.78C407.513 304.487 407.207 304.28 406.82 304.16V307.94C407.82 308.193 408.607 308.44 409.18 308.68C409.767 308.907 410.273 309.287 410.7 309.82C411.127 310.34 411.34 311.06 411.34 311.98ZM403.98 305.82C403.98 306.26 404.113 306.62 404.38 306.9C404.647 307.167 405.033 307.387 405.54 307.56V304.1C405.06 304.167 404.68 304.347 404.4 304.64C404.12 304.933 403.98 305.327 403.98 305.82ZM406.82 313.88C407.327 313.787 407.72 313.58 408 313.26C408.293 312.94 408.44 312.553 408.44 312.1C408.44 311.66 408.3 311.307 408.02 311.04C407.74 310.773 407.34 310.553 406.82 310.38V313.88ZM415.026 312.84C416.306 311.773 417.326 310.887 418.086 310.18C418.846 309.46 419.479 308.713 419.986 307.94C420.493 307.167 420.746 306.407 420.746 305.66C420.746 304.98 420.586 304.447 420.266 304.06C419.946 303.673 419.453 303.48 418.786 303.48C418.119 303.48 417.606 303.707 417.246 304.16C416.886 304.6 416.699 305.207 416.686 305.98H413.966C414.019 304.38 414.493 303.167 415.386 302.34C416.293 301.513 417.439 301.1 418.826 301.1C420.346 301.1 421.513 301.507 422.326 302.32C423.139 303.12 423.546 304.18 423.546 305.5C423.546 306.54 423.266 307.533 422.706 308.48C422.146 309.427 421.506 310.253 420.786 310.96C420.066 311.653 419.126 312.493 417.966 313.48H423.866V315.8H413.986V313.72L415.026 312.84ZM425.63 308.52C425.63 306.213 426.044 304.407 426.87 303.1C427.71 301.793 429.097 301.14 431.03 301.14C432.964 301.14 434.344 301.793 435.17 303.1C436.01 304.407 436.43 306.213 436.43 308.52C436.43 310.84 436.01 312.66 435.17 313.98C434.344 315.3 432.964 315.96 431.03 315.96C429.097 315.96 427.71 315.3 426.87 313.98C426.044 312.66 425.63 310.84 425.63 308.52ZM433.67 308.52C433.67 307.533 433.604 306.707 433.47 306.04C433.35 305.36 433.097 304.807 432.71 304.38C432.337 303.953 431.777 303.74 431.03 303.74C430.284 303.74 429.717 303.953 429.33 304.38C428.957 304.807 428.704 305.36 428.57 306.04C428.45 306.707 428.39 307.533 428.39 308.52C428.39 309.533 428.45 310.387 428.57 311.08C428.69 311.76 428.944 312.313 429.33 312.74C429.717 313.153 430.284 313.36 431.03 313.36C431.777 313.36 432.344 313.153 432.73 312.74C433.117 312.313 433.37 311.76 433.49 311.08C433.61 310.387 433.67 309.533 433.67 308.52ZM438.56 308.52C438.56 306.213 438.973 304.407 439.8 303.1C440.64 301.793 442.027 301.14 443.96 301.14C445.893 301.14 447.273 301.793 448.1 303.1C448.94 304.407 449.36 306.213 449.36 308.52C449.36 310.84 448.94 312.66 448.1 313.98C447.273 315.3 445.893 315.96 443.96 315.96C442.027 315.96 440.64 315.3 439.8 313.98C438.973 312.66 438.56 310.84 438.56 308.52ZM446.6 308.52C446.6 307.533 446.533 306.707 446.4 306.04C446.28 305.36 446.027 304.807 445.64 304.38C445.267 303.953 444.707 303.74 443.96 303.74C443.213 303.74 442.647 303.953 442.26 304.38C441.887 304.807 441.633 305.36 441.5 306.04C441.38 306.707 441.32 307.533 441.32 308.52C441.32 309.533 441.38 310.387 441.5 311.08C441.62 311.76 441.873 312.313 442.26 312.74C442.647 313.153 443.213 313.36 443.96 313.36C444.707 313.36 445.273 313.153 445.66 312.74C446.047 312.313 446.3 311.76 446.42 311.08C446.54 310.387 446.6 309.533 446.6 308.52Z" fill="black"/>
<circle cx="100" cy="309" r="21" fill="#FFBF53"/>
<path d="M99.5 300H91.45C90.535 300 89.6575 300.356 89.0105 300.989C88.3635 301.621 88 302.48 88 303.375V312.375C88 313.27 88.3635 314.129 89.0105 314.761C89.6575 315.394 90.535 315.75 91.45 315.75L90.3 316.875V318H91.45L93.75 315.716L96.05 315.75V310.125H90.3V302.25H100.65V304.5H102.95V303.375C102.95 302.48 102.587 301.621 101.94 300.989C101.293 300.356 100.415 300 99.5 300ZM91.45 311.25C91.755 311.25 92.0475 311.369 92.2632 311.58C92.4788 311.79 92.6 312.077 92.6 312.375C92.6 312.673 92.4788 312.96 92.2632 313.17C92.0475 313.381 91.755 313.5 91.45 313.5C91.145 313.5 90.8525 313.381 90.6368 313.17C90.4212 312.96 90.3 312.673 90.3 312.375C90.3 312.077 90.4212 311.79 90.6368 311.58C90.8525 311.369 91.145 311.25 91.45 311.25ZM109.355 306.367C109.194 305.917 108.757 305.625 108.24 305.625H99.9715C99.4425 305.625 99.017 305.917 98.8445 306.367L97.2 310.991V317.19C97.2 317.618 97.568 318 98.005 318H98.718C99.155 318 99.5 317.573 99.5 317.145V315.75H108.7V317.145C108.7 317.573 109.056 318 109.493 318H110.195C110.632 318 111 317.618 111 317.19V310.991L109.355 306.367ZM99.9715 306.75H108.24L109.424 310.125H98.787L99.9715 306.75ZM99.5 313.5C99.195 313.5 98.9025 313.381 98.6868 313.17C98.4712 312.96 98.35 312.673 98.35 312.375C98.35 312.077 98.4712 311.79 98.6868 311.58C98.9025 311.369 99.195 311.25 99.5 311.25C99.805 311.25 100.098 311.369 100.313 311.58C100.529 311.79 100.65 312.077 100.65 312.375C100.65 312.673 100.529 312.96 100.313 313.17C100.098 313.381 99.805 313.5 99.5 313.5ZM108.7 313.5C108.395 313.5 108.102 313.381 107.887 313.17C107.671 312.96 107.55 312.673 107.55 312.375C107.55 312.077 107.671 311.79 107.887 311.58C108.102 311.369 108.395 311.25 108.7 311.25C109.005 311.25 109.298 311.369 109.513 311.58C109.729 311.79 109.85 312.077 109.85 312.375C109.85 312.673 109.729 312.96 109.513 313.17C109.298 313.381 109.005 313.5 108.7 313.5Z" fill="white"/>
<g filter="url(#filter3_d_240_390)">
<rect x="52" y="426" width="425" height="127" rx="10" fill="white"/>
</g>
<path d="M143.18 457.3V460.8H147.88V463.02H143.18V466.72H148.48V469H140.38V455.02H148.48V457.3H143.18ZM150.305 463.42C150.305 462.3 150.525 461.307 150.965 460.44C151.418 459.573 152.031 458.907 152.805 458.44C153.578 457.973 154.438 457.74 155.385 457.74C156.105 457.74 156.791 457.9 157.445 458.22C158.098 458.527 158.618 458.94 159.005 459.46V454.2H161.845V469H159.005V467.36C158.658 467.907 158.171 468.347 157.545 468.68C156.918 469.013 156.191 469.18 155.365 469.18C154.431 469.18 153.578 468.94 152.805 468.46C152.031 467.98 151.418 467.307 150.965 466.44C150.525 465.56 150.305 464.553 150.305 463.42ZM159.025 463.46C159.025 462.78 158.891 462.2 158.625 461.72C158.358 461.227 157.998 460.853 157.545 460.6C157.091 460.333 156.605 460.2 156.085 460.2C155.565 460.2 155.085 460.327 154.645 460.58C154.205 460.833 153.845 461.207 153.565 461.7C153.298 462.18 153.165 462.753 153.165 463.42C153.165 464.087 153.298 464.673 153.565 465.18C153.845 465.673 154.205 466.053 154.645 466.32C155.098 466.587 155.578 466.72 156.085 466.72C156.605 466.72 157.091 466.593 157.545 466.34C157.998 466.073 158.358 465.7 158.625 465.22C158.891 464.727 159.025 464.14 159.025 463.46ZM175.039 457.92V469H172.219V467.6C171.859 468.08 171.386 468.46 170.799 468.74C170.226 469.007 169.599 469.14 168.919 469.14C168.053 469.14 167.286 468.96 166.619 468.6C165.953 468.227 165.426 467.687 165.039 466.98C164.666 466.26 164.479 465.407 164.479 464.42V457.92H167.279V464.02C167.279 464.9 167.499 465.58 167.939 466.06C168.379 466.527 168.979 466.76 169.739 466.76C170.513 466.76 171.119 466.527 171.559 466.06C171.999 465.58 172.219 464.9 172.219 464.02V457.92H175.039ZM177.082 463.46C177.082 462.313 177.315 461.313 177.782 460.46C178.249 459.593 178.895 458.927 179.722 458.46C180.549 457.98 181.495 457.74 182.562 457.74C183.935 457.74 185.069 458.087 185.962 458.78C186.869 459.46 187.475 460.42 187.782 461.66H184.762C184.602 461.18 184.329 460.807 183.942 460.54C183.569 460.26 183.102 460.12 182.542 460.12C181.742 460.12 181.109 460.413 180.642 461C180.175 461.573 179.942 462.393 179.942 463.46C179.942 464.513 180.175 465.333 180.642 465.92C181.109 466.493 181.742 466.78 182.542 466.78C183.675 466.78 184.415 466.273 184.762 465.26H187.782C187.475 466.46 186.869 467.413 185.962 468.12C185.055 468.827 183.922 469.18 182.562 469.18C181.495 469.18 180.549 468.947 179.722 468.48C178.895 468 178.249 467.333 177.782 466.48C177.315 465.613 177.082 464.607 177.082 463.46ZM189.113 463.42C189.113 462.3 189.333 461.307 189.773 460.44C190.226 459.573 190.833 458.907 191.593 458.44C192.366 457.973 193.226 457.74 194.173 457.74C195 457.74 195.72 457.907 196.333 458.24C196.96 458.573 197.46 458.993 197.833 459.5V457.92H200.653V469H197.833V467.38C197.473 467.9 196.973 468.333 196.333 468.68C195.706 469.013 194.98 469.18 194.153 469.18C193.22 469.18 192.366 468.94 191.593 468.46C190.833 467.98 190.226 467.307 189.773 466.44C189.333 465.56 189.113 464.553 189.113 463.42ZM197.833 463.46C197.833 462.78 197.7 462.2 197.433 461.72C197.166 461.227 196.806 460.853 196.353 460.6C195.9 460.333 195.413 460.2 194.893 460.2C194.373 460.2 193.893 460.327 193.453 460.58C193.013 460.833 192.653 461.207 192.373 461.7C192.106 462.18 191.973 462.753 191.973 463.42C191.973 464.087 192.106 464.673 192.373 465.18C192.653 465.673 193.013 466.053 193.453 466.32C193.906 466.587 194.386 466.72 194.893 466.72C195.413 466.72 195.9 466.593 196.353 466.34C196.806 466.073 197.166 465.7 197.433 465.22C197.7 464.727 197.833 464.14 197.833 463.46ZM206.648 460.22V465.58C206.648 465.953 206.734 466.227 206.908 466.4C207.094 466.56 207.401 466.64 207.828 466.64H209.128V469H207.368C205.008 469 203.828 467.853 203.828 465.56V460.22H202.508V457.92H203.828V455.18H206.648V457.92H209.128V460.22H206.648ZM212.562 456.6C212.068 456.6 211.655 456.447 211.322 456.14C211.002 455.82 210.842 455.427 210.842 454.96C210.842 454.493 211.002 454.107 211.322 453.8C211.655 453.48 212.068 453.32 212.562 453.32C213.055 453.32 213.462 453.48 213.782 453.8C214.115 454.107 214.282 454.493 214.282 454.96C214.282 455.427 214.115 455.82 213.782 456.14C213.462 456.447 213.055 456.6 212.562 456.6ZM213.942 457.92V469H211.142V457.92H213.942ZM221.628 469.18C220.561 469.18 219.601 468.947 218.748 468.48C217.895 468 217.221 467.327 216.728 466.46C216.248 465.593 216.008 464.593 216.008 463.46C216.008 462.327 216.255 461.327 216.748 460.46C217.255 459.593 217.941 458.927 218.808 458.46C219.675 457.98 220.641 457.74 221.708 457.74C222.775 457.74 223.741 457.98 224.608 458.46C225.475 458.927 226.155 459.593 226.648 460.46C227.155 461.327 227.408 462.327 227.408 463.46C227.408 464.593 227.148 465.593 226.628 466.46C226.121 467.327 225.428 468 224.548 468.48C223.681 468.947 222.708 469.18 221.628 469.18ZM221.628 466.74C222.135 466.74 222.608 466.62 223.048 466.38C223.501 466.127 223.861 465.753 224.128 465.26C224.395 464.767 224.528 464.167 224.528 463.46C224.528 462.407 224.248 461.6 223.688 461.04C223.141 460.467 222.468 460.18 221.668 460.18C220.868 460.18 220.195 460.467 219.648 461.04C219.115 461.6 218.848 462.407 218.848 463.46C218.848 464.513 219.108 465.327 219.628 465.9C220.161 466.46 220.828 466.74 221.628 466.74ZM235.602 457.76C236.922 457.76 237.989 458.18 238.802 459.02C239.615 459.847 240.022 461.007 240.022 462.5V469H237.222V462.88C237.222 462 237.002 461.327 236.562 460.86C236.122 460.38 235.522 460.14 234.762 460.14C233.989 460.14 233.375 460.38 232.922 460.86C232.482 461.327 232.262 462 232.262 462.88V469H229.462V457.92H232.262V459.3C232.635 458.82 233.109 458.447 233.682 458.18C234.269 457.9 234.909 457.76 235.602 457.76Z" fill="black"/>
<rect x="79" y="497" width="372" height="40" rx="20" fill="#F8ECFE"/>
<rect x="79" y="497" width="209" height="40" rx="20" fill="#6EDB3A"/>
<path d="M110.86 511.84H104.38V515.26C104.66 514.913 105.06 514.633 105.58 514.42C106.1 514.193 106.653 514.08 107.24 514.08C108.307 514.08 109.18 514.313 109.86 514.78C110.54 515.247 111.033 515.847 111.34 516.58C111.647 517.3 111.8 518.073 111.8 518.9C111.8 520.433 111.36 521.667 110.48 522.6C109.613 523.533 108.373 524 106.76 524C105.24 524 104.027 523.62 103.12 522.86C102.213 522.1 101.7 521.107 101.58 519.88H104.3C104.42 520.413 104.687 520.84 105.1 521.16C105.527 521.48 106.067 521.64 106.72 521.64C107.507 521.64 108.1 521.393 108.5 520.9C108.9 520.407 109.1 519.753 109.1 518.94C109.1 518.113 108.893 517.487 108.48 517.06C108.08 516.62 107.487 516.4 106.7 516.4C106.14 516.4 105.673 516.54 105.3 516.82C104.927 517.1 104.66 517.473 104.5 517.94H101.82V509.38H110.86V511.84ZM113.931 516.52C113.931 514.213 114.344 512.407 115.171 511.1C116.011 509.793 117.398 509.14 119.331 509.14C121.264 509.14 122.644 509.793 123.471 511.1C124.311 512.407 124.731 514.213 124.731 516.52C124.731 518.84 124.311 520.66 123.471 521.98C122.644 523.3 121.264 523.96 119.331 523.96C117.398 523.96 116.011 523.3 115.171 521.98C114.344 520.66 113.931 518.84 113.931 516.52ZM121.971 516.52C121.971 515.533 121.904 514.707 121.771 514.04C121.651 513.36 121.398 512.807 121.011 512.38C120.638 511.953 120.078 511.74 119.331 511.74C118.584 511.74 118.018 511.953 117.631 512.38C117.258 512.807 117.004 513.36 116.871 514.04C116.751 514.707 116.691 515.533 116.691 516.52C116.691 517.533 116.751 518.387 116.871 519.08C116.991 519.76 117.244 520.313 117.631 520.74C118.018 521.153 118.584 521.36 119.331 521.36C120.078 521.36 120.644 521.153 121.031 520.74C121.418 520.313 121.671 519.76 121.791 519.08C121.911 518.387 121.971 517.533 121.971 516.52ZM126.541 513C126.541 511.987 126.834 511.193 127.421 510.62C128.021 510.047 128.787 509.76 129.721 509.76C130.654 509.76 131.414 510.047 132.001 510.62C132.601 511.193 132.901 511.987 132.901 513C132.901 514.027 132.601 514.827 132.001 515.4C131.414 515.973 130.654 516.26 129.721 516.26C128.787 516.26 128.021 515.973 127.421 515.4C126.834 514.827 126.541 514.027 126.541 513ZM139.381 510L131.521 524H128.801L136.641 510H139.381ZM129.701 511.44C128.967 511.44 128.601 511.96 128.601 513C128.601 514.053 128.967 514.58 129.701 514.58C130.061 514.58 130.341 514.453 130.541 514.2C130.741 513.933 130.841 513.533 130.841 513C130.841 511.96 130.461 511.44 129.701 511.44ZM135.321 520.98C135.321 519.953 135.614 519.16 136.201 518.6C136.801 518.027 137.567 517.74 138.501 517.74C139.434 517.74 140.187 518.027 140.761 518.6C141.347 519.16 141.641 519.953 141.641 520.98C141.641 522.007 141.347 522.807 140.761 523.38C140.187 523.953 139.434 524.24 138.501 524.24C137.554 524.24 136.787 523.953 136.201 523.38C135.614 522.807 135.321 522.007 135.321 520.98ZM138.481 519.42C137.721 519.42 137.341 519.94 137.341 520.98C137.341 522.033 137.721 522.56 138.481 522.56C139.227 522.56 139.601 522.033 139.601 520.98C139.601 519.94 139.227 519.42 138.481 519.42Z" fill="white"/>
<path d="M398.34 464.98C398.34 465.673 398.16 466.327 397.8 466.94C397.453 467.54 396.933 468.04 396.24 468.44C395.56 468.827 394.753 469.053 393.82 469.12V470.74H392.54V469.1C391.207 468.98 390.133 468.58 389.32 467.9C388.507 467.207 388.087 466.273 388.06 465.1H391.06C391.14 466.06 391.633 466.64 392.54 466.84V463.02C391.58 462.78 390.807 462.54 390.22 462.3C389.633 462.06 389.127 461.673 388.7 461.14C388.273 460.607 388.06 459.88 388.06 458.96C388.06 457.8 388.473 456.853 389.3 456.12C390.14 455.387 391.22 454.967 392.54 454.86V453.24H393.82V454.86C395.1 454.967 396.12 455.353 396.88 456.02C397.653 456.687 398.087 457.607 398.18 458.78H395.16C395.12 458.393 394.98 458.06 394.74 457.78C394.513 457.487 394.207 457.28 393.82 457.16V460.94C394.82 461.193 395.607 461.44 396.18 461.68C396.767 461.907 397.273 462.287 397.7 462.82C398.127 463.34 398.34 464.06 398.34 464.98ZM390.98 458.82C390.98 459.26 391.113 459.62 391.38 459.9C391.647 460.167 392.033 460.387 392.54 460.56V457.1C392.06 457.167 391.68 457.347 391.4 457.64C391.12 457.933 390.98 458.327 390.98 458.82ZM393.82 466.88C394.327 466.787 394.72 466.58 395 466.26C395.293 465.94 395.44 465.553 395.44 465.1C395.44 464.66 395.3 464.307 395.02 464.04C394.74 463.773 394.34 463.553 393.82 463.38V466.88ZM402.026 465.84C403.306 464.773 404.326 463.887 405.086 463.18C405.846 462.46 406.479 461.713 406.986 460.94C407.493 460.167 407.746 459.407 407.746 458.66C407.746 457.98 407.586 457.447 407.266 457.06C406.946 456.673 406.453 456.48 405.786 456.48C405.119 456.48 404.606 456.707 404.246 457.16C403.886 457.6 403.699 458.207 403.686 458.98H400.966C401.019 457.38 401.493 456.167 402.386 455.34C403.293 454.513 404.439 454.1 405.826 454.1C407.346 454.1 408.513 454.507 409.326 455.32C410.139 456.12 410.546 457.18 410.546 458.5C410.546 459.54 410.266 460.533 409.706 461.48C409.146 462.427 408.506 463.253 407.786 463.96C407.066 464.653 406.126 465.493 404.966 466.48H410.866V468.8H400.986V466.72L402.026 465.84ZM412.63 461.52C412.63 459.213 413.044 457.407 413.87 456.1C414.71 454.793 416.097 454.14 418.03 454.14C419.964 454.14 421.344 454.793 422.17 456.1C423.01 457.407 423.43 459.213 423.43 461.52C423.43 463.84 423.01 465.66 422.17 466.98C421.344 468.3 419.964 468.96 418.03 468.96C416.097 468.96 414.71 468.3 413.87 466.98C413.044 465.66 412.63 463.84 412.63 461.52ZM420.67 461.52C420.67 460.533 420.604 459.707 420.47 459.04C420.35 458.36 420.097 457.807 419.71 457.38C419.337 456.953 418.777 456.74 418.03 456.74C417.284 456.74 416.717 456.953 416.33 457.38C415.957 457.807 415.704 458.36 415.57 459.04C415.45 459.707 415.39 460.533 415.39 461.52C415.39 462.533 415.45 463.387 415.57 464.08C415.69 464.76 415.944 465.313 416.33 465.74C416.717 466.153 417.284 466.36 418.03 466.36C418.777 466.36 419.344 466.153 419.73 465.74C420.117 465.313 420.37 464.76 420.49 464.08C420.61 463.387 420.67 462.533 420.67 461.52ZM425.56 461.52C425.56 459.213 425.973 457.407 426.8 456.1C427.64 454.793 429.027 454.14 430.96 454.14C432.893 454.14 434.273 454.793 435.1 456.1C435.94 457.407 436.36 459.213 436.36 461.52C436.36 463.84 435.94 465.66 435.1 466.98C434.273 468.3 432.893 468.96 430.96 468.96C429.027 468.96 427.64 468.3 426.8 466.98C425.973 465.66 425.56 463.84 425.56 461.52ZM433.6 461.52C433.6 460.533 433.533 459.707 433.4 459.04C433.28 458.36 433.027 457.807 432.64 457.38C432.267 456.953 431.707 456.74 430.96 456.74C430.213 456.74 429.647 456.953 429.26 457.38C428.887 457.807 428.633 458.36 428.5 459.04C428.38 459.707 428.32 460.533 428.32 461.52C428.32 462.533 428.38 463.387 428.5 464.08C428.62 464.76 428.873 465.313 429.26 465.74C429.647 466.153 430.213 466.36 430.96 466.36C431.707 466.36 432.273 466.153 432.66 465.74C433.047 465.313 433.3 464.76 433.42 464.08C433.54 463.387 433.6 462.533 433.6 461.52ZM438.49 461.52C438.49 459.213 438.903 457.407 439.73 456.1C440.57 454.793 441.956 454.14 443.89 454.14C445.823 454.14 447.203 454.793 448.03 456.1C448.87 457.407 449.29 459.213 449.29 461.52C449.29 463.84 448.87 465.66 448.03 466.98C447.203 468.3 445.823 468.96 443.89 468.96C441.956 468.96 440.57 468.3 439.73 466.98C438.903 465.66 438.49 463.84 438.49 461.52ZM446.53 461.52C446.53 460.533 446.463 459.707 446.33 459.04C446.21 458.36 445.956 457.807 445.57 457.38C445.196 456.953 444.636 456.74 443.89 456.74C443.143 456.74 442.576 456.953 442.19 457.38C441.816 457.807 441.563 458.36 441.43 459.04C441.31 459.707 441.25 460.533 441.25 461.52C441.25 462.533 441.31 463.387 441.43 464.08C441.55 464.76 441.803 465.313 442.19 465.74C442.576 466.153 443.143 466.36 443.89 466.36C444.636 466.36 445.203 466.153 445.59 465.74C445.976 465.313 446.23 464.76 446.35 464.08C446.47 463.387 446.53 462.533 446.53 461.52Z" fill="black"/>
<circle cx="100" cy="462" r="21" fill="#6EDB3A"/>
<path d="M94.82 466L99 468.28V471H92C90.89 471 90 470.11 90 469V453C90 452.47 90.2107 451.961 90.5858 451.586C90.9609 451.211 91.4696 451 92 451H93V458L95.5 456.5L98 458V451H104C104.53 451 105.039 451.211 105.414 451.586C105.789 451.961 106 452.47 106 453V461.54L104.5 460.72L94.82 466ZM110 466L104.5 463L99 466L104.5 469L110 466ZM101 468.09V470.09L104.5 472L108 470.09V468.09L104.5 470L101 468.09Z" fill="white"/>
<defs>
<filter id="filter0_d_240_390" x="97" y="0" width="511" height="576" filterUnits="userSpaceOnUse" color-interpolation-filters="sRGB">
<feFlood flood-opacity="0" result="BackgroundImageFix"/>
<feColorMatrix in="SourceAlpha" type="matrix" values="0 0 0 0 0 0 0 0 0 0 0 0 0 0 0 0 0 0 127 0" result="hardAlpha"/>
<feOffset/>
<feGaussianBlur stdDeviation="26"/>
<feComposite in2="hardAlpha" operator="out"/>
<feColorMatrix type="matrix" values="0 0 0 0 0 0 0 0 0 0 0 0 0 0 0 0 0 0 0.08 0"/>
<feBlend mode="normal" in2="BackgroundImageFix" result="effect1_dropShadow_240_390"/>
<feBlend mode="normal" in="SourceGraphic" in2="effect1_dropShadow_240_390" result="shape"/>
</filter>
<filter id="filter1_d_240_390" x="0" y="79" width="529" height="231" filterUnits="userSpaceOnUse" color-interpolation-filters="sRGB">
<feFlood flood-opacity="0" result="BackgroundImageFix"/>
<feColorMatrix in="SourceAlpha" type="matrix" values="0 0 0 0 0 0 0 0 0 0 0 0 0 0 0 0 0 0 127 0" result="hardAlpha"/>
<feOffset/>
<feGaussianBlur stdDeviation="26"/>
<feComposite in2="hardAlpha" operator="out"/>
<feColorMatrix type="matrix" values="0 0 0 0 0 0 0 0 0 0 0 0 0 0 0 0 0 0 0.08 0"/>
<feBlend mode="normal" in2="BackgroundImageFix" result="effect1_dropShadow_240_390"/>
<feBlend mode="normal" in="SourceGraphic" in2="effect1_dropShadow_240_390" result="shape"/>
</filter>
<filter id="filter2_d_240_390" x="0" y="221" width="529" height="231" filterUnits="userSpaceOnUse" color-interpolation-filters="sRGB">
<feFlood flood-opacity="0" result="BackgroundImageFix"/>
<feColorMatrix in="SourceAlpha" type="matrix" values="0 0 0 0 0 0 0 0 0 0 0 0 0 0 0 0 0 0 127 0" result="hardAlpha"/>
<feOffset/>
<feGaussianBlur stdDeviation="26"/>
<feComposite in2="hardAlpha" operator="out"/>
<feColorMatrix type="matrix" values="0 0 0 0 0 0 0 0 0 0 0 0 0 0 0 0 0 0 0.08 0"/>
<feBlend mode="normal" in2="BackgroundImageFix" result="effect1_dropShadow_240_390"/>
<feBlend mode="normal" in="SourceGraphic" in2="effect1_dropShadow_240_390" result="shape"/>
</filter>
<filter id="filter3_d_240_390" x="0" y="374" width="529" height="231" filterUnits="userSpaceOnUse" color-interpolation-filters="sRGB">
<feFlood flood-opacity="0" result="BackgroundImageFix"/>
<feColorMatrix in="SourceAlpha" type="matrix" values="0 0 0 0 0 0 0 0 0 0 0 0 0 0 0 0 0 0 127 0" result="hardAlpha"/>
<feOffset/>
<feGaussianBlur stdDeviation="26"/>
<feComposite in2="hardAlpha" operator="out"/>
<feColorMatrix type="matrix" values="0 0 0 0 0 0 0 0 0 0 0 0 0 0 0 0 0 0 0.08 0"/>
<feBlend mode="normal" in2="BackgroundImageFix" result="effect1_dropShadow_240_390"/>
<feBlend mode="normal" in="SourceGraphic" in2="effect1_dropShadow_240_390" result="shape"/>
</filter>
</defs>
</svg>
