<svg width="107" height="133" viewBox="0 0 107 133" fill="none" xmlns="http://www.w3.org/2000/svg">
<path d="M106.351 43.7969C106.034 43.0752 105.59 42.4154 105.041 41.8485L64.9156 1.94845C64.3455 1.4017 63.6819 0.960336 62.9561 0.645049C62.7555 0.551949 62.5415 0.498749 62.3275 0.425599C61.7679 0.236249 61.1854 0.122188 60.5954 0.0864501C60.455 0.0731501 60.3279 0 60.1875 0H13.375C5.99869 0 0 5.96505 0 13.3V119.7C0 127.035 5.99869 133 13.375 133H93.625C101.001 133 107 127.035 107 119.7V46.55C107 46.4104 106.926 46.284 106.913 46.1377C106.88 45.5506 106.766 44.9709 106.572 44.4153C106.505 44.2025 106.445 43.9964 106.351 43.7969ZM84.1689 39.9H66.875V22.7031L84.1689 39.9ZM13.375 119.7V13.3H53.5V46.55C53.5 48.3137 54.2046 50.0051 55.4587 51.2523C56.7129 52.4994 58.4139 53.2 60.1875 53.2H93.625L93.6384 119.7H13.375Z" fill="white"/>
<path d="M26.75 66.5H80.25V79.8H26.75V66.5ZM26.75 93.1H80.25V106.4H26.75V93.1ZM26.75 39.9H40.125V53.2H26.75V39.9Z" fill="white"/>
</svg>
