<svg width="34" height="42" viewBox="0 0 34 42" fill="none" xmlns="http://www.w3.org/2000/svg">
<path d="M33.7939 13.8306C33.6931 13.6027 33.5521 13.3943 33.3774 13.2153L20.6274 0.6153C20.4462 0.442642 20.2354 0.303264 20.0047 0.2037C19.941 0.1743 19.873 0.1575 19.805 0.1344C19.6272 0.0746049 19.4421 0.0385857 19.2546 0.0273C19.21 0.0231 19.1696 0 19.125 0H4.25C1.90612 0 0 1.8837 0 4.2V37.8C0 40.1163 1.90612 42 4.25 42H29.75C32.0939 42 34 40.1163 34 37.8V14.7C34 14.6559 33.9766 14.616 33.9724 14.5698C33.962 14.3844 33.9255 14.2013 33.864 14.0259C33.8428 13.9587 33.8236 13.8936 33.7939 13.8306ZM26.7453 12.6H21.25V7.1694L26.7453 12.6ZM4.25 37.8V4.2H17V14.7C17 15.257 17.2239 15.7911 17.6224 16.1849C18.0209 16.5787 18.5614 16.8 19.125 16.8H29.75L29.7543 37.8H4.25Z" fill="white"/>
<path d="M8.5 21H25.5V25.2H8.5V21ZM8.5 29.4H25.5V33.6H8.5V29.4ZM8.5 12.6H12.75V16.8H8.5V12.6Z" fill="white"/>
</svg>
